# xmcd
#
# Track frame offsets: 
#        150
#        11632
#        23781
#        35776
#        48966
#        61710
#        72639
#        85531
#        97076
#        107335
#        118918
#        128805
#        141928
#        153029
#        164082
#        180640
#        192254
#        204079
#        217375
#        227604
#        239566
#        254495
#        267049
#        276920
#        287882
#
# Disc length: 3953 seconds
#
# Revision: 0
# Processed by: cddbd v1.5.2PL0 Copyright (c) Steve Scherf et al.
# Submitted via: ExactAudioCopy v0.95b4
#
DISCID=730f6f19
DTITLE=Various Artist - Beginner's Guide To Rhythm 'n' Blues [CD1: Rhythm 'n'
DTITLE=Blues)
DYEAR=2010
DGENRE=R&B
TTITLE0=John Lee Hooker - Boom Boom
TTITLE1=Billy Boy Arnold - I Wish You Would
TTITLE2=Rosco Gordon - No More Doggin'
TTITLE3=Buster Brown - Doctor Brown
TTITLE4=Jimmy Reed - Shame, Shame, Shame
TTITLE5=Wilbert Harrison - Kansas City
TTITLE6=Tarheel Slim - Number Nine Train
TTITLE7=Elmore James - Shake Your Moneymaker
TTITLE8=Huey 'Piano' Smith and The Clowns - Rockin' Pneumonia And The Bo
TTITLE8=ogie Woogie Flu
TTITLE9=Ernie K-Doe - Mother In Law
TTITLE10=Lee Dorsey - Do-Re-Mi
TTITLE11=Don Gardner and Dee Dee Ford - I Need Your Lovin'
TTITLE12=Betty Everett - I've Got A Claim On You Baby
TTITLE13=Five Du-Tones - Shake A Tail Feather
TTITLE14=Billy Preston - Billy's Bag
TTITLE15=Wade Flemons - Ain't That Loving You Baby
TTITLE16=JB Lenoir - I Sing Um The Way I Feel
TTITLE17=Buster Brown - Fannie Mae
TTITLE18=Junior Wells - Messing With The Kid
TTITLE19=Willie Mabon - Just Got Some
TTITLE20=Elmore James - It Hurts Me Too
TTITLE21=Jimmy Reed - Big Boss Man
TTITLE22=John Lee Hooker - Dimples
TTITLE23=Billy 'The Kid' Emerson - The Whip pt.1
TTITLE24=Joe Tex - Yum, Yum, Yum
EXTD=
EXTT0=
EXTT1=
EXTT2=
EXTT3=
EXTT4=
EXTT5=
EXTT6=
EXTT7=
EXTT8=
EXTT9=
EXTT10=
EXTT11=
EXTT12=
EXTT13=
EXTT14=
EXTT15=
EXTT16=
EXTT17=
EXTT18=
EXTT19=
EXTT20=
EXTT21=
EXTT22=
EXTT23=
EXTT24=
PLAYORDER=
